<svg id="Layer_1" data-name="Layer 1" xmlns="http://www.w3.org/2000/svg" viewBox="0 0 250 58"><path d="M2.5,6.79a116.91,116.91,0,0,1,14.87-1c10,0,17.19,2,21.93,5.69s7.63,9,7.63,16.39S44.2,41.46,39.14,45.66,25.72,52.23,15.2,52.23c-5,0-9.16-.2-12.7-.54Zm7,40.36a52.41,52.41,0,0,0,7.07.34c15,0,23.06-7,23.06-19.37.08-10.77-7.15-17.61-21.93-17.61a46.8,46.8,0,0,0-8.2.61Z"/><path d="M102.3,28.53c0,15.71-11.33,24-25.15,24-14.3,0-24.35-9.35-24.35-23.16,0-14.5,10.69-24,25.15-24C92.74,5.43,102.3,15,102.3,28.53Zm-42,.74c0,9.75,6.27,18.49,17.28,18.49s17.36-8.6,17.36-19c0-9.08-5.63-18.56-17.28-18.56S60.27,19.25,60.27,29.27Z"/><path d="M149.23,50.33c-2.58,1.09-7.72,2.17-14.31,2.17-15.26,0-26.75-8.13-26.75-23.09,0-14.29,11.49-24,28.28-24,6.75,0,11,1.22,12.86,2l-1.69,4.81a29.63,29.63,0,0,0-10.93-1.89c-12.69,0-21.13,6.84-21.13,18.82,0,11.18,7.63,18.36,20.81,18.36a32.54,32.54,0,0,0,11.41-1.9Z"/><path d="M194.14,50.33c-2.57,1.09-7.71,2.17-14.3,2.17-15.26,0-26.76-8.13-26.76-23.09,0-14.29,11.5-24,28.29-24,6.75,0,11,1.22,12.85,2l-1.68,4.81a29.63,29.63,0,0,0-10.93-1.89c-12.7,0-21.13,6.84-21.13,18.82,0,11.18,7.63,18.36,20.81,18.36a32.54,32.54,0,0,0,11.41-1.9Z"/><path d="M247.5,28.53c0,15.71-11.33,24-25.15,24-14.3,0-24.35-9.35-24.35-23.16,0-14.5,10.69-24,25.15-24C237.94,5.43,247.5,15,247.5,28.53Zm-42,.74c0,9.75,6.26,18.49,17.27,18.49s17.36-8.6,17.36-19c0-9.08-5.63-18.56-17.28-18.56S205.48,19.25,205.48,29.27Z"/></svg>