<?xml version="1.0" encoding="utf-8"?>
<!-- Generator: Adobe Illustrator 24.3.0, SVG Export Plug-In . SVG Version: 6.00 Build 0)  -->
<svg version="1.1" id="Capa_1" xmlns="http://www.w3.org/2000/svg" xmlns:xlink="http://www.w3.org/1999/xlink" x="0px" y="0px"
	 viewBox="0 0 513 512" style="enable-background:new 0 0 513 512;" xml:space="preserve">
<g transform="translate(0 -1)">
	<g>
		<g>
			<path d="M81.5,365.4h-50c-13.8,0-25,11.2-25,25v108.3c0,4.6,3.7,8.3,8.3,8.3h83.3c4.6,0,8.3-3.7,8.3-8.3V390.4
				C106.5,376.6,95.3,365.4,81.5,365.4z M89.8,490.4H23.2v-100c0-4.6,3.7-8.3,8.3-8.3h50c4.6,0,8.3,3.7,8.3,8.3L89.8,490.4
				L89.8,490.4z"/>
			<path d="M214.8,248.7h-50c-13.8,0-25,11.2-25,25v225c0,4.6,3.7,8.3,8.3,8.3h83.3c4.6,0,8.3-3.7,8.3-8.3v-225
				C239.8,259.9,228.6,248.7,214.8,248.7z M223.2,490.4h-66.7V273.7c0-4.6,3.7-8.3,8.3-8.3h50c4.6,0,8.3,3.7,8.3,8.3L223.2,490.4
				L223.2,490.4z"/>
			<path d="M348.2,298.7h-50c-13.8,0-25,11.2-25,25v175c0,4.6,3.7,8.3,8.3,8.3h83.3c4.6,0,8.3-3.7,8.3-8.3v-175
				C373.1,309.9,362,298.7,348.2,298.7z M356.5,490.4h-66.7V323.7c0-4.6,3.7-8.3,8.3-8.3h50c4.6,0,8.3,3.7,8.3,8.3L356.5,490.4
				L356.5,490.4z"/>
			<path d="M481.5,232h-50c-13.8,0-25,11.2-25,25v241.7c0,4.6,3.7,8.3,8.3,8.3h83.3c4.6,0,8.3-3.7,8.3-8.3V257
				C506.5,243.2,495.3,232,481.5,232z M489.8,490.4h-66.7V257c0-4.6,3.7-8.3,8.3-8.3h50c4.6,0,8.3,3.7,8.3,8.3L489.8,490.4
				L489.8,490.4z"/>
			<path d="M419.2,106.9c15.3,17.2,40.3,21.7,60.6,11S510.6,84,505,61.7c-5.5-22.3-25.6-38-48.5-38c-16.7,0-32.3,8.3-41.6,22.2
				c-9.3,13.9-11,31.5-4.6,46.9l-49.8,31.1c-9-10.2-21.7-16.2-35.2-16.8s-26.7,4.4-36.5,13.7l-54.5-40.9c11.5-22.3,4.7-49.7-15.9-64
				s-48.7-11.1-65.5,7.5s-17.3,46.8-1.1,66l-69.9,83c-22.4-13.2-51.2-7-66.2,14.2S4.4,237,24.3,253.7s49.3,15.4,67.6-3
				s19.5-47.8,2.7-67.6l69.9-83c19.2,11.4,43.6,8.6,59.7-6.8l54.5,40.9c-10.6,20.6-5.7,45.7,11.8,60.8c17.5,15.1,43.1,16.2,61.9,2.6
				c18.8-13.6,25.7-38.2,16.9-59.6L419.2,106.9z M456.5,40.4c18.4,0,33.3,14.9,33.3,33.3c0,18.4-14.9,33.3-33.3,33.3
				c-18.4,0-33.3-14.9-33.3-33.3S438.1,40.4,456.5,40.4z M56.5,248.7c-18.4,0-33.3-14.9-33.3-33.3S38.1,182,56.5,182
				s33.3,14.9,33.3,33.3C89.8,233.8,74.9,248.7,56.5,248.7z M189.8,90.4c-18.4,0-33.3-14.9-33.3-33.3s14.9-33.3,33.3-33.3
				s33.3,14.9,33.3,33.3C223.1,75.4,208.2,90.3,189.8,90.4z M323.2,190.4c-18.4,0-33.3-14.9-33.3-33.3s14.9-33.3,33.3-33.3
				c18.4,0,33.3,14.9,33.3,33.3C356.5,175.4,341.6,190.3,323.2,190.4z"/>
		</g>
	</g>
</g>
</svg>
