<?xml version="1.0" encoding="utf-8"?>
<!-- Generator: Adobe Illustrator 24.3.0, SVG Export Plug-In . SVG Version: 6.00 Build 0)  -->
<svg version="1.1" id="Layer_1" xmlns="http://www.w3.org/2000/svg" xmlns:xlink="http://www.w3.org/1999/xlink" x="0px" y="0px"
	 viewBox="0 0 512 512" style="enable-background:new 0 0 512 512;" xml:space="preserve">
<path d="M473.4,6H38.6C20.6,6,6,20.6,6,38.6v434.8c0,18,14.6,32.6,32.6,32.6h434.8c18,0,32.6-14.6,32.6-32.6V38.6
	C506,20.6,491.4,6,473.4,6z M484.3,473.4c0,6-4.9,10.9-10.9,10.9H38.6c-6,0-10.9-4.9-10.9-10.9V38.6c0-6,4.9-10.9,10.9-10.9h434.8
	c6,0,10.9,4.9,10.9,10.9V473.4z"/>
<path d="M288,136H176c-4.4,0-8,3.6-8,8v224c0,4.4,3.6,8,8,8h112c30.9,0,56-25.1,56-56v-16c0-20.3-10.9-38.2-27.2-48
	c16.3-9.8,27.2-27.7,27.2-48v-16C344,161.1,318.9,136,288,136z M328,304v16c0,22.1-17.9,40-40,40H184v-96h104
	C310.1,264,328,281.9,328,304z M328,208c0,22.1-17.9,40-40,40H184v-96h104c22.1,0,40,17.9,40,40V208z"/>
</svg>
