<?xml version="1.0" encoding="utf-8"?>
<!-- Generator: Adobe Illustrator 24.3.0, SVG Export Plug-In . SVG Version: 6.00 Build 0)  -->
<svg version="1.1" id="Capa_1" xmlns="http://www.w3.org/2000/svg" xmlns:xlink="http://www.w3.org/1999/xlink" x="0px" y="0px"
	 viewBox="0 0 512 512" style="enable-background:new 0 0 512 512;" xml:space="preserve">
<g>
	<g>
		<path d="M317.8,73.5l-16.9-4.6c-2.2-0.7-4.3-0.5-6.4,0.7c-2.1,1.2-3.5,3-4.2,5.3L188.2,427.6c-0.7,2.4-0.5,4.6,0.7,6.7
			c1.2,2.1,3,3.5,5.3,4.2l16.9,4.6c2.2,0.7,4.3,0.5,6.4-0.7c2.1-1.2,3.5-3,4.2-5.3L323.8,84.4c0.7-2.4,0.5-4.6-0.7-6.7
			C321.9,75.6,320.1,74.2,317.8,73.5z"/>
		<path d="M165,142.3c0-2.4-0.9-4.5-2.7-6.3l-13.7-13.7c-1.8-1.8-3.9-2.7-6.3-2.7c-2.4,0-4.5,0.9-6.3,2.7L8.7,249.7
			C6.9,251.5,6,253.6,6,256c0,2.4,0.9,4.5,2.7,6.3l127.3,127.3c1.8,1.8,3.9,2.7,6.3,2.7s4.5-0.9,6.3-2.7l13.7-13.7
			c1.8-1.8,2.7-3.9,2.7-6.3c0-2.4-0.9-4.5-2.7-6.3L54.9,256l107.4-107.4C164.1,146.8,165,144.7,165,142.3z"/>
		<path d="M503.3,249.7L375.9,122.4c-1.8-1.8-3.9-2.7-6.3-2.7c-2.4,0-4.5,0.9-6.3,2.7L349.7,136c-1.8,1.8-2.7,3.9-2.7,6.3
			s0.9,4.5,2.7,6.3L457.1,256L349.7,363.4c-1.8,1.8-2.7,3.9-2.7,6.3c0,2.4,0.9,4.5,2.7,6.3l13.7,13.7c1.8,1.8,3.9,2.7,6.3,2.7
			c2.4,0,4.5-0.9,6.3-2.7l127.3-127.3c1.8-1.8,2.7-3.9,2.7-6.3C506,253.6,505.1,251.5,503.3,249.7z"/>
	</g>
</g>
</svg>
