<?xml version="1.0" encoding="utf-8"?>
<!-- Generator: Adobe Illustrator 24.3.0, SVG Export Plug-In . SVG Version: 6.00 Build 0)  -->
<svg version="1.1" id="Capa_1" xmlns="http://www.w3.org/2000/svg" xmlns:xlink="http://www.w3.org/1999/xlink" x="0px" y="0px"
	 viewBox="0 0 512 512" style="enable-background:new 0 0 512 512;" xml:space="preserve">
<g>
	<g>
		<g>
			<path d="M20.6,123.2c-8.1,0-14.6-6.6-14.6-14.6V20.6C6,12.6,12.6,6,20.6,6h87.9c8.1,0,14.6,6.6,14.6,14.6s-6.6,14.6-14.6,14.6
				H35.3v73.2C35.3,116.6,28.7,123.2,20.6,123.2z"/>
		</g>
		<g>
			<path d="M491.4,123.2c-8.1,0-14.6-6.6-14.6-14.6V35.3h-73.2c-8.1,0-14.6-6.6-14.6-14.6S395.4,6,403.5,6h87.9
				c8.1,0,14.6,6.6,14.6,14.6v87.9C506,116.6,499.4,123.2,491.4,123.2z"/>
		</g>
		<g>
			<path d="M108.5,506H20.6C12.6,506,6,499.4,6,491.4v-87.9c0-8.1,6.6-14.6,14.6-14.6s14.6,6.6,14.6,14.6v73.2h73.2
				c8.1,0,14.6,6.6,14.6,14.6S116.6,506,108.5,506z"/>
		</g>
		<g>
			<path d="M491.4,506h-87.9c-8.1,0-14.6-6.6-14.6-14.6s6.6-14.6,14.6-14.6h73.2v-73.2c0-8.1,6.6-14.6,14.6-14.6s14.6,6.6,14.6,14.6
				v87.9C506,499.4,499.4,506,491.4,506z"/>
		</g>
	</g>
	<g>
		<path d="M299.9,212.1h87.9v-87.9h-87.9V212.1z M343.9,153.5c8.1,0,14.6,6.6,14.6,14.6s-6.6,14.6-14.6,14.6s-14.6-6.6-14.6-14.6
			S335.8,153.5,343.9,153.5z"/>
		<path d="M299.9,358.5h29.3v29.3h-29.3V358.5z"/>
		<path d="M124.2,387.8h87.9v-87.9h-87.9V387.8z M168.1,329.2c8.1,0,14.6,6.6,14.6,14.6s-6.6,14.6-14.6,14.6s-14.6-6.6-14.6-14.6
			S160,329.2,168.1,329.2z"/>
		<path d="M124.2,212.1h87.9v-87.9h-87.9V212.1z M168.1,153.5c8.1,0,14.6,6.6,14.6,14.6s-6.6,14.6-14.6,14.6s-14.6-6.6-14.6-14.6
			S160,153.5,168.1,153.5z"/>
		<path d="M402.5,65.6h-293c-24.3,0-43.9,19.7-43.9,43.9v293c0,24.3,19.7,43.9,43.9,43.9h293c24.3,0,43.9-19.7,43.9-43.9v-293
			C446.4,85.2,426.8,65.6,402.5,65.6z M241.4,402.5c0,8.1-6.6,14.6-14.6,14.6H109.5c-8.1,0-14.6-6.6-14.6-14.6V285.3
			c0-8.1,6.6-14.6,14.6-14.6h117.2c8.1,0,14.6,6.6,14.6,14.6V402.5z M241.4,226.7c0,8.1-6.6,14.6-14.6,14.6H109.5
			c-8.1,0-14.6-6.6-14.6-14.6V109.5c0-8.1,6.6-14.6,14.6-14.6h117.2c8.1,0,14.6,6.6,14.6,14.6V226.7z M358.5,402.5
			c0,8.1-6.6,14.6-14.6,14.6h-58.6c-8.1,0-14.6-6.6-14.6-14.6v-58.6c0-8.1,6.6-14.6,14.6-14.6h58.6c8.1,0,14.6,6.6,14.6,14.6V402.5z
			 M417.1,402.5c0,8.1-6.6,14.6-14.6,14.6s-14.6-6.6-14.6-14.6V383c0-8.1,6.6-14.6,14.6-14.6s14.6,6.6,14.6,14.6V402.5z
			 M417.1,324.4c0,8.1-6.6,14.6-14.6,14.6s-14.6-6.6-14.6-14.6v-24.4H285.3c-8.1,0-14.6-6.6-14.6-14.6s6.6-14.6,14.6-14.6h117.2
			c8.1,0,14.6,6.6,14.6,14.6V324.4z M417.1,226.7c0,8.1-6.6,14.6-14.6,14.6H285.3c-8.1,0-14.6-6.6-14.6-14.6V109.5
			c0-8.1,6.6-14.6,14.6-14.6h117.2c8.1,0,14.6,6.6,14.6,14.6V226.7z"/>
	</g>
</g>
</svg>
