<?xml version="1.0" encoding="utf-8"?>
<!-- Generator: Adobe Illustrator 24.3.0, SVG Export Plug-In . SVG Version: 6.00 Build 0)  -->
<svg version="1.1" id="Layer_1" xmlns="http://www.w3.org/2000/svg" xmlns:xlink="http://www.w3.org/1999/xlink" x="0px" y="0px"
	 viewBox="0 0 512 512" style="enable-background:new 0 0 512 512;" xml:space="preserve">
<g id="coding">
	<path d="M233.4,278.6l11.8-11.8l-44.1-44.1l44.1-44.1l-11.8-11.8l-50,50c-3.3,3.3-3.3,8.5,0,11.8L233.4,278.6z"/>
	<path d="M278.6,278.6l50-50c3.3-3.3,3.3-8.5,0-11.8l-50-50l-11.8,11.8l44.1,44.1l-44.1,44.1L278.6,278.6z"/>
	<path d="M9.5,79.5l58.3,41.7c2.7,1.9,6.3,2.1,9.2,0.4l29-17.4v1.9c0,4.6,3.7,8.3,8.3,8.3h33.3c4.6,0,8.3-3.7,8.3-8.3v-8.3h125
		c13.8,0,25-11.2,25-25s-11.2-25-25-25H156v-8.3c0-4.6-3.7-8.3-8.3-8.3h-33.3c-4.6,0-8.3,3.7-8.3,8.3v1.9L77,23.9
		c-2.9-1.7-6.5-1.6-9.2,0.4L9.5,65.9c-3.7,2.7-4.6,7.9-1.9,11.6C8.1,78.3,8.7,78.9,9.5,79.5L9.5,79.5z M281,64.3
		c4.6,0,8.3,3.7,8.3,8.3S285.6,81,281,81H156V64.3H281z M122.7,47.7h16.7v50h-16.7V47.7z M73.1,41L106,60.7v23.9l-32.9,19.8
		L28.7,72.7L73.1,41z"/>
	<path d="M329,114.1l10.8,2.7l-5.7,9.5c-2,3.3-1.4,7.5,1.3,10.2l2.9,2.9H47.7c-13.8,0-25,11.2-25,25v250c0,13.8,11.2,25,25,25h416.6
		c13.8,0,25-11.2,25-25v-250c0-10.7-6.8-20.1-16.9-23.5l4.3-4.3c2.7-2.7,3.2-6.9,1.3-10.2l-5.7-9.5l10.8-2.7
		c3.7-0.9,6.3-4.3,6.3-8.1V72.7c0-3.8-2.6-7.2-6.3-8.1l-10.8-2.7l5.7-9.5c2-3.3,1.4-7.5-1.3-10.2l-23.6-23.6
		c-2.7-2.7-6.9-3.2-10.2-1.3l-9.5,5.7l-2.7-10.8c-0.9-3.7-4.3-6.3-8.1-6.3h-33.3c-3.8,0-7.2,2.6-8.1,6.3l-2.7,10.8l-9.5-5.7
		c-3.3-2-7.5-1.4-10.2,1.3l-23.6,23.6c-2.7,2.7-3.2,6.9-1.3,10.2l5.7,9.5L329,64.6c-3.7,0.9-6.3,4.3-6.3,8.1V106
		C322.7,109.8,325.3,113.2,329,114.1L329,114.1z M464.3,156c4.6,0,8.3,3.7,8.3,8.3v250c0,4.6-3.7,8.3-8.3,8.3H47.7
		c-4.6,0-8.3-3.7-8.3-8.3v-250c0-4.6,3.7-8.3,8.3-8.3h307.1l4,4c2.7,2.7,6.9,3.2,10.2,1.3l9.5-5.7l2.7,10.8c0.9,3.7,4.3,6.3,8.1,6.3
		h33.3c3.8,0,7.2-2.6,8.1-6.3l2.7-10.8l9.5,5.7c3.3,2,7.5,1.4,10.2-1.3l4-4H464.3z M339.3,79.2l15.4-3.8c4.5-1.1,7.2-5.6,6.1-10.1
		c-0.2-0.8-0.5-1.6-0.9-2.3l-8.2-13.6L366,35l13.6,8.1c3.9,2.4,9.1,1.1,11.4-2.9c0.4-0.7,0.7-1.5,0.9-2.3l3.8-15.4h20.3L420,38
		c1.1,4.5,5.6,7.2,10.1,6.1c0.8-0.2,1.6-0.5,2.3-0.9l13.6-8.1l14.4,14.4L452.2,63c-2.4,3.9-1.1,9.1,2.9,11.4
		c0.7,0.4,1.5,0.7,2.3,0.9l15.4,3.8v20.3l-15.4,3.8c-4.5,1.1-7.2,5.6-6.1,10.1c0.2,0.8,0.5,1.6,0.9,2.3l8.2,13.6l-10,10h-11.5
		l-6.4-3.8c-3.9-2.4-9.1-1.1-11.4,2.9c-0.4,0.7-0.7,1.5-0.9,2.3l-3.8,15.4h-20.3l-3.8-15.4c-1.1-4.5-5.6-7.2-10.1-6.1
		c-0.8,0.2-1.6,0.5-2.3,0.9l-6.4,3.8h-11.5l-10-10l8.2-13.6c2.4-3.9,1.1-9.1-2.9-11.4c-0.7-0.4-1.5-0.7-2.3-0.9l-15.4-3.9V79.2z"/>
	<path d="M406,122.7c18.4,0,33.3-14.9,33.3-33.3S424.4,56,406,56s-33.3,14.9-33.3,33.3S387.6,122.7,406,122.7z M406,72.7
		c9.2,0,16.7,7.5,16.7,16.7S415.2,106,406,106c-9.2,0-16.7-7.5-16.7-16.7S396.8,72.7,406,72.7z"/>
	<path d="M422.7,356H356c-4.6,0-8.3,3.7-8.3,8.3v8.3h-50v-8.3c0-4.6-3.7-8.3-8.3-8.3h-25v-16.7h25c4.6,0,8.3-3.7,8.3-8.3v-33.3
		c0-4.6-3.7-8.3-8.3-8.3h-66.7c-4.6,0-8.3,3.7-8.3,8.3V331c0,4.6,3.7,8.3,8.3,8.3h25V356h-25c-4.6,0-8.3,3.7-8.3,8.3v8.3h-50v-8.3
		c0-4.6-3.7-8.3-8.3-8.3H89.3c-4.6,0-8.3,3.7-8.3,8.3v33.3c0,4.6,3.7,8.3,8.3,8.3H156c4.6,0,8.3-3.7,8.3-8.3v-8.3h50v8.3
		c0,4.6,3.7,8.3,8.3,8.3h66.7c4.6,0,8.3-3.7,8.3-8.3v-8.3h50v8.3c0,4.6,3.7,8.3,8.3,8.3h66.7c4.6,0,8.3-3.7,8.3-8.3v-33.3
		C431,359.7,427.3,356,422.7,356z M231,306h50v16.7h-50V306z M147.7,389.3h-50v-16.7h50V389.3z M281,389.3h-50v-16.7h50V389.3z
		 M414.3,389.3h-50v-16.7h50V389.3z"/>
	<path d="M139.3,306h33.3v16.7h-33.3V306z"/>
	<path d="M56,306h66.7v16.7H56V306z"/>
	<path d="M89.3,272.7h83.3v16.7H89.3V272.7z"/>
	<path d="M56,272.7h16.7v16.7H56V272.7z"/>
	<path d="M156,239.3h16.7V256H156V239.3z"/>
	<path d="M56,239.3h83.3V256H56V239.3z"/>
	<path d="M339.3,306h33.3v16.7h-33.3V306z"/>
	<path d="M389.3,306H456v16.7h-66.7V306z"/>
	<path d="M339.3,272.7h83.3v16.7h-83.3V272.7z"/>
	<path d="M439.3,272.7H456v16.7h-16.7V272.7z"/>
	<path d="M339.3,239.3H356V256h-16.7V239.3z"/>
	<path d="M372.7,239.3H456V256h-83.3V239.3z"/>
	<path d="M504.2,459.2c-1.6-2-4-3.2-6.6-3.2H289.3c-4.6,0-8.3,3.7-8.3,8.3v8.3h-50v-8.3c0-4.6-3.7-8.3-8.3-8.3H14.4
		c-4.6,0-8.3,3.7-8.3,8.3c0,0.7,0.1,1.4,0.2,2l5.2,20.7c2.8,11.1,12.8,18.9,24.3,18.9h440.6c11.5,0,21.5-7.8,24.3-18.9l5.2-20.7
		C506.4,463.9,505.8,461.2,504.2,459.2z M35.7,489.3c-3.8,0-7.2-2.6-8.1-6.3L25,472.7h189.3v8.3c0,4.6,3.7,8.3,8.3,8.3H35.7z
		 M484.4,483c-0.9,3.7-4.3,6.3-8.1,6.3h-187c4.6,0,8.3-3.7,8.3-8.3v-8.3H487L484.4,483z"/>
</g>
</svg>
