<?xml version="1.0" encoding="utf-8"?>
<!-- Generator: Adobe Illustrator 24.3.0, SVG Export Plug-In . SVG Version: 6.00 Build 0)  -->
<svg version="1.1" id="Layer_1" xmlns="http://www.w3.org/2000/svg" xmlns:xlink="http://www.w3.org/1999/xlink" x="0px" y="0px"
	 viewBox="0 0 512 512" style="enable-background:new 0 0 512 512;" xml:space="preserve">
<g id="Outline">
	<path d="M489.3,164.3c0-13.8-11.2-25-25-25h-75c0-4.9-0.3-9.7-0.8-14.6c-0.2-1.8-0.5-3.5-0.8-5.3c-0.4-2.9-0.9-5.8-1.5-8.7
		c-0.5-2.2-1.1-4.3-1.7-6.4c-0.6-2.4-1.3-4.7-2.1-7.1c-0.8-2.3-1.6-4.5-2.5-6.7c-0.9-2.2-1.7-4.2-2.7-6.3c-1-2.2-2-4.4-3.2-6.5
		c-1.1-2.1-2.3-4.2-3.5-6.2c-1.1-1.9-2.2-3.8-3.5-5.7c-2.2-3.3-4.5-6.4-7-9.5c-0.4-0.5-0.8-1.1-1.2-1.6c-3.1-3.8-6.5-7.4-10-10.8
		c-0.5-0.4-0.9-0.8-1.4-1.2c-3.2-3-6.5-5.9-10-8.6c-0.3-0.2-0.5-0.5-0.8-0.7l-4.9-3.7l-0.1,0.1c-60.3-41.9-143.1-26.9-185,33.3
		c-3.7,5.4-7.1,11-10,16.9l-0.1,0l-1.7,3.5c-0.1,0.2-0.2,0.4-0.2,0.6c-1.7,3.8-3.3,7.7-4.7,11.7c-0.2,0.5-0.4,1-0.6,1.5
		c-1.3,3.8-2.3,7.7-3.2,11.7c-0.2,0.7-0.4,1.4-0.6,2.2c-0.8,3.7-1.4,7.5-1.9,11.3c-0.1,0.9-0.3,1.8-0.4,2.7
		c-0.5,4.7-0.7,9.4-0.7,14.1h-75c-13.8,0-25,11.2-25,25V456H6v25c0,13.8,11.2,25,25,25h450c13.8,0,25-11.2,25-25v-25h-16.7V164.3z
		 M139.9,127.7c1.2-11.5,4.1-22.8,8.6-33.5c19.9-4,40.4,4,52.2,20.5l3.9,5.5c6.3,8.8,9.7,19.3,9.7,30.1c0,27,15.9,51.5,40.6,62.5
		l0,0c16.4,7.3,29,21.1,34.9,38c-2.6,0.8-5.1,1.5-7.7,2.1c-0.3,0.1-0.5,0.1-0.8,0.2c-1.8,0.4-3.7,0.7-5.5,1
		c-1.8,0.3-3.6,0.6-5.4,0.8c-1.4,0.2-2.8,0.3-4.2,0.5c-3.4,0.3-6.8,0.5-10.3,0.5c-64.4-0.1-116.6-52.3-116.6-116.7
		C139.3,135.4,139.5,131.5,139.9,127.7z M256,272.7c4.2,0,8.4-0.2,12.6-0.6c2.4-0.2,4.7-0.6,7.1-1c1.7-0.2,3.3-0.4,4.9-0.8
		c3.1-0.6,6.2-1.3,9.2-2.1c0.8-0.2,1.5-0.4,2.3-0.6c3.3-0.9,6.7-2,9.9-3.2c0.3-0.1,0.7-0.2,1.1-0.3l3.9-1.5c0.3-0.1,0.7-0.2,1-0.4
		l1.8-0.7l0-0.2c29-12.9,52.5-35.7,66.3-64.3l0.2-0.1l1.2-2.7c0.1-0.2,0.1-0.4,0.2-0.5c0.6-1.4,1.3-2.9,1.9-4.3h59.8v233.3H72.7
		V189.3h59.8C152.9,239.6,201.7,272.6,256,272.7z M363.4,184.6l-11.5,5.7c-7.7,3.9-16.8,3.6-24.3-0.7l-3.7-2.1
		c-12.4-7.1-16.7-22.8-9.6-35.2c1.1-2,2.5-3.8,4.1-5.4c13.5-13.5,16.3-34.4,6.8-51.1l-5.1-8.9c-6.6-11.5-3.4-26.1,7.4-33.8l3.8-2.7
		c3,2.6,5.9,5.3,8.7,8.2c0.7,0.7,1.4,1.5,2.1,2.3c1.9,2.1,3.7,4.2,5.5,6.4c1,1.3,2,2.6,2.9,3.9c1.3,1.8,2.5,3.6,3.7,5.4
		c1.1,1.7,2.1,3.3,3.1,5c1,1.7,1.8,3.3,2.7,5c1,1.9,1.9,3.8,2.8,5.7c0.7,1.7,1.4,3.3,2,5.1c0.8,2,1.5,4,2.2,6
		c0.6,1.9,1.1,3.8,1.6,5.7c0.5,1.9,1.1,3.8,1.5,5.8c0.5,2.4,0.8,4.8,1.2,7.2c0.2,1.6,0.6,3.1,0.7,4.7c0.4,4.1,0.7,8.2,0.7,12.3
		c0,3.9-0.2,7.8-0.6,11.7C370.9,162.6,368,173.9,363.4,184.6z M256,22.7c21.6,0,42.9,6.1,61.2,17.5c-17.2,12.8-22.2,36.4-11.5,55
		l5.1,8.9c5.7,10.1,4,22.8-4.2,31c-16.6,16.6-16.6,43.5,0,60c2.7,2.7,5.7,5,8.9,6.8l3.7,2.1c9.1,5.3,19.9,6.9,30.2,4.6
		c-11.5,15.5-26.7,27.9-44.1,36.1c-7.5-21.1-23.3-38.1-43.7-47.2l0,0c-18.7-8.3-30.7-26.9-30.7-47.3c0-14.3-4.4-28.2-12.7-39.8
		l-3.9-5.5c-13.1-18.1-34.2-28.7-56.6-28.3C179.1,43.1,216.2,22.7,256,22.7z M39.3,164.3c0-4.6,3.7-8.3,8.3-8.3h76.2
		c0.7,5.6,1.8,11.2,3.2,16.7H56v266.7h400V172.7h-71.1c0.3-1.3,0.7-2.7,1-4c0.1-0.5,0.3-1,0.4-1.5c0.8-3.6,1.3-7.4,1.8-11.1h76.2
		c4.6,0,8.3,3.7,8.3,8.3V456H39.3V164.3z M489.3,481c0,4.6-3.7,8.3-8.3,8.3H31c-4.6,0-8.3-3.7-8.3-8.3v-8.3h466.6V481z"/>
	<path d="M222.7,406h66.7v-33.3h34.8L256,293.2l-68.1,79.5h34.8V406z M256,318.8l31.9,37.2h-15.2v33.3h-33.3V356h-15.2L256,318.8z"
		/>
</g>
</svg>
