<?xml version="1.0" encoding="utf-8"?>
<!-- Generator: Adobe Illustrator 24.3.0, SVG Export Plug-In . SVG Version: 6.00 Build 0)  -->
<svg version="1.1" id="Layer_1" xmlns="http://www.w3.org/2000/svg" xmlns:xlink="http://www.w3.org/1999/xlink" x="0px" y="0px"
	 viewBox="0 0 512 512" style="enable-background:new 0 0 512 512;" xml:space="preserve">
<g id="_09-timer">
	<path d="M407.4,154.9l29.9-29.9l-29.4-29.5l-32,32c-29.2-20.7-63.4-33.5-99-37.1V47.8h41.6V6.1H193.5v41.6h41.6v42.7
		c-35.7,3.6-69.8,16.3-99,37.1l-32-32L74.7,125l29.9,29.9c-79,83.6-75.2,215.4,8.4,294.4s215.4,75.2,294.4-8.4
		C483.2,360.6,483.2,235.1,407.4,154.9L407.4,154.9z M256,464.2c-92,0-166.6-74.6-166.6-166.6S164,131.1,256,131.1
		s166.6,74.6,166.6,166.6C422.5,389.6,348,464.1,256,464.2z"/>
	<path d="M256,172.7v124.9H131.1c0,69,55.9,124.9,124.9,124.9s124.9-55.9,124.9-124.9S325,172.7,256,172.7z"/>
</g>
</svg>
