<?xml version="1.0" encoding="utf-8"?>
<!-- Generator: Adobe Illustrator 24.3.0, SVG Export Plug-In . SVG Version: 6.00 Build 0)  -->
<svg version="1.1" id="Layer_1" xmlns="http://www.w3.org/2000/svg" xmlns:xlink="http://www.w3.org/1999/xlink" x="0px" y="0px"
	 viewBox="0 0 512 512" style="enable-background:new 0 0 512 512;" xml:space="preserve">
<g>
	<path d="M74.6,143.8h29.3v41H74.6V143.8z"/>
	<path d="M74.6,74.1h29.3v41H74.6V74.1z"/>
	<path d="M74.6,5h29.3v41H74.6V5z"/>
	<path d="M74.6,212.8h29.3v41H74.6V212.8z"/>
	<path d="M477.7,143.8H507v41h-29.3V143.8z"/>
	<path d="M477.7,74.1H507v41h-29.3V74.1z"/>
	<path d="M477.7,5H507v41h-29.3V5z"/>
	<path d="M477.7,212.8H507v41h-29.3V212.8z"/>
	<path d="M477.7,281.8H507v41h-29.3V281.8z"/>
	<path d="M477.7,350.9H507v41h-29.3V350.9z"/>
	<path d="M269.9,5h41v29.3h-41V5z"/>
	<path d="M200.3,5h41v29.3h-41V5z"/>
	<path d="M131.1,5h41v29.3h-41V5z"/>
	<path d="M338.9,5h41v29.3h-41V5z"/>
	<path d="M408,5h41v29.3h-41V5z"/>
	<path d="M260.4,411h41v29.3h-41V411z"/>
	<path d="M329.4,411h41v29.3h-41V411z"/>
	<path d="M398.4,411h41v29.3h-41V411z"/>
	<path d="M468.3,411H507v29.3h-38.7V411z"/>
	<path d="M134.9,279.2h78.1L350,141.8l-57.9,0.1l-0.1-29.3l107.6-0.2l0.4,108l-29.3,0.1l-0.2-57.8L232.8,301v77.8h212.9V65.7H134.9
		V279.2z"/>
	<path d="M7,308.5h196.5V505H7V308.5z"/>
</g>
</svg>
