<?xml version="1.0" encoding="utf-8"?>
<!-- Generator: Adobe Illustrator 24.3.0, SVG Export Plug-In . SVG Version: 6.00 Build 0)  -->
<svg version="1.1" id="Layer_1" xmlns="http://www.w3.org/2000/svg" xmlns:xlink="http://www.w3.org/1999/xlink" x="0px" y="0px"
	 viewBox="0 0 511 511" style="enable-background:new 0 0 511 511;" xml:space="preserve">
<g>
	<path d="M46.3,55.5c-6.3,0-11.4,5.1-11.4,11.4v278.3c0,6.3,5.1,11.4,11.4,11.4h416.3c6.3,0,11.4-5.1,11.4-11.4
		c0-12.4,0-254,0-278.3c0-6.3-5.1-11.4-11.4-11.4C445.4,55.5,63.6,55.5,46.3,55.5z M49.6,70.2h29.3v21.6H49.6V70.2z M49.6,106.4
		h216.1v235.5H49.6V106.4z M459.4,341.9h-179V106.4h179L459.4,341.9L459.4,341.9z M459.4,91.7c-10.5,0-361,0-365.8,0V70.2h365.8
		V91.7z"/>
	<path d="M91,133.2H76.5c-4,0-7.3,3.3-7.3,7.3c0,4,3.3,7.3,7.3,7.3H91c4,0,7.3-3.3,7.3-7.3C98.4,136.4,95.1,133.2,91,133.2z"/>
	<path d="M91,166.4H76.5c-4,0-7.3,3.3-7.3,7.3c0,4,3.3,7.3,7.3,7.3H91c4,0,7.3-3.3,7.3-7.3C98.4,169.7,95.1,166.4,91,166.4z"/>
	<path d="M91,199.7H76.5c-4,0-7.3,3.3-7.3,7.3s3.3,7.3,7.3,7.3H91c4,0,7.3-3.3,7.3-7.3S95.1,199.7,91,199.7z"/>
	<path d="M91,232.9H76.5c-4,0-7.3,3.3-7.3,7.3c0,4,3.3,7.3,7.3,7.3H91c4,0,7.3-3.3,7.3-7.3C98.4,236.2,95.1,232.9,91,232.9z"/>
	<path d="M91,266.2H76.5c-4,0-7.3,3.3-7.3,7.3s3.3,7.3,7.3,7.3H91c4,0,7.3-3.3,7.3-7.3S95.1,266.2,91,266.2z"/>
	<path d="M91,299.4H76.5c-4,0-7.3,3.3-7.3,7.3s3.3,7.3,7.3,7.3H91c4,0,7.3-3.3,7.3-7.3S95.1,299.4,91,299.4z"/>
	<path d="M123.3,147.8H237c4,0,7.3-3.3,7.3-7.3c0-4-3.3-7.3-7.3-7.3H123.3c-4,0-7.3,3.3-7.3,7.3
		C115.9,144.5,119.2,147.8,123.3,147.8z"/>
	<path d="M237,166.4H123.3c-4,0-7.3,3.3-7.3,7.3c0,4,3.3,7.3,7.3,7.3H237c4,0,7.3-3.3,7.3-7.3C244.3,169.7,241.1,166.4,237,166.4z"
		/>
	<path d="M123.3,214.3h56.9c4,0,7.3-3.3,7.3-7.3s-3.3-7.3-7.3-7.3h-56.9c-4,0-7.3,3.3-7.3,7.3S119.2,214.3,123.3,214.3z"/>
	<path d="M237,232.9H123.3c-4,0-7.3,3.3-7.3,7.3c0,4,3.3,7.3,7.3,7.3H237c4,0,7.3-3.3,7.3-7.3C244.3,236.2,241.1,232.9,237,232.9z"
		/>
	<path d="M237,266.2H123.3c-4,0-7.3,3.3-7.3,7.3s3.3,7.3,7.3,7.3H237c4,0,7.3-3.3,7.3-7.3S241.1,266.2,237,266.2z"/>
	<path d="M180.1,299.4h-56.9c-4,0-7.3,3.3-7.3,7.3s3.3,7.3,7.3,7.3h56.9c4,0,7.3-3.3,7.3-7.3S184.2,299.4,180.1,299.4z"/>
	<path d="M469,25H271.6c-4,0-7.3,3.3-7.3,7.3s3.3,7.3,7.3,7.3H469c11.5,0,20.8,9.3,20.8,20.8v291c0,11.5-9.3,20.8-20.8,20.8
		c-11.2,0-417.4,0-429.1,0c-11.5,0-20.8-9.3-20.8-20.8v-291c0-11.5,9.3-20.8,20.8-20.8h197.4c4,0,7.3-3.3,7.3-7.3s-3.3-7.3-7.3-7.3
		H40C20.4,25,4.5,41,4.5,60.5v291C4.5,371.1,20.4,387,40,387h161.8v21.6c0,8.5-4.3,16.6-11.1,21l-19.9,12.9h-13
		c-9.4,0-17.1,7.7-17.1,17.1v10.9c0,9.4,7.7,17.1,17.1,17.1h193.7c9.4,0,17.1-7.7,17.1-17.1v-10.9c0-9.4-7.7-17.1-17.1-17.1h-13
		l-19.9-12.9c-6.9-4.4-11.1-12.5-11.1-21V387H469c19.6,0,35.5-15.9,35.5-35.5v-291C504.5,41,488.6,25,469,25z M353.8,459.5v10.9
		c0,1.3-1.1,2.4-2.4,2.4H157.7c-1.3,0-2.4-1.1-2.4-2.4v-10.9c0-1.3,1.1-2.4,2.4-2.4h193.7C352.7,457.1,353.8,458.2,353.8,459.5z
		 M311.3,442.4H197.7c12.8-8.3,18.7-20.9,18.7-33.8V387h76.3v21.6C292.6,421.7,298.5,434.2,311.3,442.4z"/>
	<path d="M306.9,329.7h125.8c7.2,0,13.1-5.9,13.1-13.1v-86.7c0-4-3.3-7.3-7.3-7.3c-4,0-7.3,3.3-7.3,7.3V315H308.5V132.2h122.6v63.5
		c0,4,3.3,7.3,7.3,7.3c4,0,7.3-3.3,7.3-7.3v-65.1c0-7.2-5.9-13.1-13.1-13.1H306.9c-7.2,0-13.1,5.9-13.1,13.1v186
		C293.8,323.8,299.7,329.7,306.9,329.7z"/>
</g>
</svg>
