<?xml version="1.0" encoding="utf-8"?>
<!-- Generator: Adobe Illustrator 24.3.0, SVG Export Plug-In . SVG Version: 6.00 Build 0)  -->
<svg version="1.1" id="Layer_1" xmlns="http://www.w3.org/2000/svg" xmlns:xlink="http://www.w3.org/1999/xlink" x="0px" y="0px"
	 viewBox="0 0 512 512" style="enable-background:new 0 0 512 512;" xml:space="preserve">
<g>
	<g>
		<path d="M499.5,145.1L369,47.3c-10.7-8.1-26.1-0.4-26.1,13V93H185.3c-9,0-16.3,7.3-16.3,16.3v97.8c0,9,7.3,16.3,16.3,16.3H343V256
			c0,13.5,15.4,21,26.1,13l130.4-97.8C508.2,164.7,508.2,151.6,499.5,145.1z M375.6,223.4v-16.3c0-9-7.3-16.3-16.3-16.3H201.7v-65.2
			h157.6c9,0,16.3-7.3,16.3-16.3V93l87,65.2L375.6,223.4z"/>
	</g>
</g>
<g>
	<g>
		<path d="M326.7,288.6H169V256c0-13.4-15.4-21.1-26.1-13L12.5,340.8c-8.7,6.5-8.7,19.6,0,26.1L143,464.7c10.7,8,26.1,0.4,26.1-13
			V419h157.6c9,0,16.3-7.3,16.3-16.3v-97.8C343,295.9,335.7,288.6,326.7,288.6z M310.3,386.4H152.7c-9,0-16.3,7.3-16.3,16.3V419
			l-87-65.2l87-65.2v16.3c0,9,7.3,16.3,16.3,16.3h157.6V386.4z"/>
	</g>
</g>
</svg>
