<?xml version="1.0" encoding="utf-8"?>
<!-- Generator: Adobe Illustrator 24.3.0, SVG Export Plug-In . SVG Version: 6.00 Build 0)  -->
<svg version="1.1" id="Capa_1" xmlns="http://www.w3.org/2000/svg" xmlns:xlink="http://www.w3.org/1999/xlink" x="0px" y="0px"
	 viewBox="0 0 512 512" style="enable-background:new 0 0 512 512;" xml:space="preserve">
<g>
	<path d="M64.8,273.5l-5.6,0v22.7c1.6,0.3,3.5,0.3,6.3,0.4c7.5,0.2,14.3-2.8,14.3-11.5C79.8,276.8,73.1,273.5,64.8,273.5z"/>
	<path d="M464.4,47.8H313c-0.7,0-1.3,0.1-2,0.1V6L15.5,45.4v420.1L311,506v-43.2c0.7,0,1.3,0.1,2,0.1h151.4
		c17.7,0,32.1-14.4,32.1-32.1V79.9C496.5,62.2,482.1,47.8,464.4,47.8z M89.9,303.6c-5.5,4.6-14.6,7-29.2,6.4
		c-8-0.3-13.9-1.1-17.4-1.8v-78c4.2-1.1,12.7-2.2,20.9-2.5c10.1-0.4,16.4,0.4,21.9,3.8c5.3,2.9,9.2,8.5,9.2,16
		c0,7.4-4,14.4-12.5,17.9v0.2c8.7,2.6,15.2,9.7,15.2,20.5C97.9,293.7,94.7,299.5,89.9,303.6z M182.5,313.7l-1.3-34.5
		c-0.4-10.8-0.8-23.9-0.8-36.9l-0.4,0c-2.8,11.5-6.5,24.3-9.9,34.7l-10.6,34.4l-15-0.5l-8.9-33.8c-2.7-10.1-5.5-22.4-7.4-33.5h-0.2
		c-0.5,11.6-0.9,24.8-1.5,35.5l-1.4,32.5l-16.8-0.6l5.1-84.6l24.5-1l8.2,28.8c2.6,10.1,5.3,21,7.2,31.3l0.4,0
		c2.4-10.2,5.3-21.8,8.2-31.6l9.3-29.7l26.6-1l5.1,91.3L182.5,313.7z M281.9,272.6c-8.1,7-19.9,10.1-33.4,9.9c-3,0-5.6-0.2-7.7-0.5
		v33.8l-21.8-0.8v-91.5c6.7-1.4,16.2-2.6,29.9-3.1c14.1-0.6,24.4,1.6,31.4,6.6c6.8,4.7,11.4,12.7,11.4,22.4
		C291.7,259,288.2,267.1,281.9,272.6z M311,238.3c0.1,0,0.2,0,0.3,0c7.5,0,13.6-6.1,13.6-13.6c0-7.5-6.1-13.6-13.6-13.6
		c-0.1,0-0.2,0-0.3,0v-21c1.8-0.5,3.7-0.7,5.7-0.7H416c13.5,0,24.3,11.2,24.3,25.1V295c0,6.8-2.6,12.9-6.8,17.4
		c-6.5-16.7-14.5-34.8-25.9-31.9c-14.4,3.7-22.1,34.9-23.2,39.6h-0.3c-1.1-5.2-9.4-41.9-29.8-62.3c-20.4-20.4-40.2,51.6-42.9,61.7
		c-0.2,0-0.4-0.1-0.6-0.2V238.3z M478.1,430.8c0,7.6-6.2,13.8-13.8,13.8H313c-0.7,0-1.3-0.1-2-0.2v-95.8h144V171.2H311V66.3
		c0.7-0.1,1.3-0.2,2-0.2h151.4c7.6,0,13.8,6.2,13.8,13.8L478.1,430.8L478.1,430.8z"/>
	<path d="M250.1,236.6c-4.6,0.1-7.7,0.6-9.3,1.1v27.9c1.9,0.4,4.3,0.5,7.5,0.5c12.2,0,19.8-5.9,19.8-15.8
		C268.1,241.4,261.6,236.3,250.1,236.6z"/>
	<path d="M78.1,250.2c0-6.2-4.3-9.4-11.8-9.2c-3.6,0.1-5.6,0.4-7,0.7v18.8l5.4,0C73.3,260.3,78.1,256.2,78.1,250.2z"/>
	<path d="M393.8,247c2.8,0,5.3-0.3,7.6-0.7c2.6,1.1,5.9,1.8,9.4,1.8c9,0,16.3-4.4,16.3-9.8c0-5.4-7.3-9.8-16.3-9.8
		c-3.4,0-6.5,0.6-9.1,1.7c-1.1-1-2.5-1.7-4.1-1.7h-2.4c-3,0-5.4,2.3-5.7,5.2c-7.3,0.8-12.7,3.4-12.7,6.6
		C376.8,244,384.4,247,393.8,247z"/>
</g>
</svg>
