<?xml version="1.0" encoding="utf-8"?>
<!-- Generator: Adobe Illustrator 24.3.0, SVG Export Plug-In . SVG Version: 6.00 Build 0)  -->
<svg version="1.1" id="Layer_1" xmlns="http://www.w3.org/2000/svg" xmlns:xlink="http://www.w3.org/1999/xlink" x="0px" y="0px"
	 viewBox="0 0 512 512" style="enable-background:new 0 0 512 512;" xml:space="preserve">
<g>
	<path d="M78.7,428.7h18.2v18.2H78.7V428.7z"/>
	<path d="M478.7,37.8H96.9c-15.1,0-27.3,12.2-27.3,27.3v127.3H33.3C18.2,192.4,6,204.6,6,219.6v227.3c0,15.1,12.2,27.3,27.3,27.3
		h109.1c15.1,0,27.3-12.2,27.3-27.3v-54.5h63.6v24.8l-26,43.3c-1.7,2.8-1.7,6.3-0.1,9.2c1.6,2.9,4.6,4.6,7.9,4.6h145.5
		c3.3,0,6.3-1.8,7.9-4.6c1.6-2.8,1.6-6.3-0.1-9.2l-26-43.3v-24.8h136.4c15.1,0,27.3-12.2,27.3-27.3v-300
		C506,50,493.8,37.8,478.7,37.8z M151.5,446.9c0,5-4.1,9.1-9.1,9.1H33.3c-5,0-9.1-4.1-9.1-9.1v-27.3h127.3V446.9z M151.5,401.5H24.2
		V246.9h127.3V401.5z M151.5,228.7H24.2v-9.1c0-5,4.1-9.1,9.1-9.1h109.1c5,0,9.1,4.1,9.1,9.1V228.7z M142.4,192.4h-18.2v-100h45.5
		v127.3C169.6,204.6,157.4,192.4,142.4,192.4z M344.5,456H231.2l19-31.7c0.9-1.4,1.3-3,1.3-4.7v-27.3h72.7v27.3
		c0,1.7,0.4,3.3,1.3,4.7L344.5,456z M487.8,365.1c0,5-4.1,9.1-9.1,9.1H169.6v-54.5h318.2V365.1z M487.8,301.5H169.6v-27.3h9.1
		c5,0,9.1-4.1,9.1-9.1V83.3c0-5-4.1-9.1-9.1-9.1h-63.6c-5,0-9.1,4.1-9.1,9.1v109.1H87.8V65.1c0-5,4.1-9.1,9.1-9.1h381.8
		c5,0,9.1,4.1,9.1,9.1V301.5z"/>
	<path d="M278.7,337.8h18.2V356h-18.2V337.8z"/>
	<path d="M87.8,356c25.1,0,45.5-20.4,45.5-45.5c0-25.1-20.4-45.5-45.5-45.5s-45.5,20.4-45.5,45.5C42.4,335.6,62.7,356,87.8,356z
		 M87.8,283.3c15.1,0,27.3,12.2,27.3,27.3c0,15.1-12.2,27.3-27.3,27.3s-27.3-12.2-27.3-27.3C60.5,295.5,72.8,283.3,87.8,283.3z"/>
	<path d="M42.4,365.1h90.9v18.2H42.4V365.1z"/>
	<path d="M287.8,74.2c-45.2,0-81.8,36.6-81.8,81.8s36.6,81.8,81.8,81.8s81.8-36.6,81.8-81.8C369.6,110.8,333,74.2,287.8,74.2z
		 M287.8,219.6c-35.1,0-63.6-28.5-63.6-63.6s28.5-63.6,63.6-63.6s63.6,28.5,63.6,63.6C351.4,191.1,322.9,219.6,287.8,219.6z"/>
	<path d="M215.1,256h145.5v18.2H215.1V256z"/>
	<path d="M460.5,74.2h-63.6c-5,0-9.1,4.1-9.1,9.1v81.8c0,5,4.1,9.1,9.1,9.1h63.6c5,0,9.1-4.1,9.1-9.1V83.3
		C469.6,78.3,465.6,74.2,460.5,74.2z M451.5,156H406V92.4h45.5V156z"/>
	<path d="M460.5,192.4h-63.6c-5,0-9.1,4.1-9.1,9.1v63.6c0,5,4.1,9.1,9.1,9.1h63.6c5,0,9.1-4.1,9.1-9.1v-63.6
		C469.6,196.4,465.6,192.4,460.5,192.4z M451.5,256H406v-45.5h45.5V256z"/>
</g>
</svg>
