<?xml version="1.0" encoding="utf-8"?>
<!-- Generator: Adobe Illustrator 24.3.0, SVG Export Plug-In . SVG Version: 6.00 Build 0)  -->
<svg version="1.1" id="Layer_1" xmlns="http://www.w3.org/2000/svg" xmlns:xlink="http://www.w3.org/1999/xlink" x="0px" y="0px"
	 viewBox="0 0 512 512" style="enable-background:new 0 0 512 512;" xml:space="preserve">
<g id="surface1">
	<path d="M352.3,302.7c60-84.8,39.9-202.1-44.8-262.1S105.4,0.6,45.4,85.4c-60,84.8-39.9,202.1,44.8,262.1
		c60.5,42.8,140.5,46.1,204.3,8.4l138.6,137.8c15,15.8,39.9,16.4,55.6,1.4c15.8-15,16.4-39.9,1.4-55.6c-0.5-0.5-0.9-1-1.4-1.4
		L352.3,302.7z M198.7,315.5c-67,0-121.3-54.2-121.3-121.2c0-67,54.2-121.3,121.2-121.3c66.9,0,121.2,54.1,121.3,121
		C320,261,265.8,315.4,198.7,315.5C198.8,315.5,198.8,315.5,198.7,315.5z"/>
</g>
</svg>
