<?xml version="1.0" encoding="utf-8"?>
<!-- Generator: Adobe Illustrator 24.3.0, SVG Export Plug-In . SVG Version: 6.00 Build 0)  -->
<svg version="1.1" id="_x31_" xmlns="http://www.w3.org/2000/svg" xmlns:xlink="http://www.w3.org/1999/xlink" x="0px" y="0px"
	 viewBox="0 0 512 512" style="enable-background:new 0 0 512 512;" xml:space="preserve">
<g>
	<path d="M391.4,506H120.6c-28.7,0-52.1-23.4-52.1-52.1V120.6c0-28.7,23.4-52.1,52.1-52.1h41.7c5.8,0,10.4,4.7,10.4,10.4
		s-4.7,10.4-10.4,10.4h-41.7c-17.2,0-31.2,14-31.2,31.2v333.3c0,17.2,14,31.2,31.2,31.2h270.8c17.2,0,31.2-14,31.2-31.2V120.6
		c0-17.2-14-31.2-31.2-31.2h-41.7c-5.7,0-10.4-4.7-10.4-10.4s4.7-10.4,10.4-10.4h41.7c28.7,0,52.1,23.4,52.1,52.1v333.3
		C443.5,482.6,420.1,506,391.4,506z"/>
	<path d="M328.9,131H183.1c-17.2,0-31.2-14-31.2-31.2V58.1c0-5.8,4.7-10.4,10.4-10.4H205C209.8,23.9,230.9,6,256,6
		s46.2,17.9,51,41.7h42.7c5.8,0,10.4,4.7,10.4,10.4v41.7C360.2,117,346.1,131,328.9,131z M172.7,68.5v31.2c0,5.8,4.7,10.4,10.4,10.4
		h145.8c5.7,0,10.4-4.7,10.4-10.4V68.5h-41.7c-5.8,0-10.4-4.7-10.4-10.4c0-17.2-14-31.2-31.2-31.2s-31.2,14-31.2,31.2
		c0,5.8-4.7,10.4-10.4,10.4H172.7z"/>
	<path d="M391.4,443.5H120.6c-5.8,0-10.4-4.7-10.4-10.4v-250c0-5.8,4.7-10.4,10.4-10.4h270.8c5.7,0,10.4,4.7,10.4,10.4v250
		C401.8,438.8,397.2,443.5,391.4,443.5z M131,422.7h250V193.5H131V422.7z"/>
	<path d="M203.9,443.5c-5.8,0-10.4-4.7-10.4-10.4v-250c0-5.8,4.7-10.4,10.4-10.4s10.4,4.7,10.4,10.4v250
		C214.3,438.8,209.7,443.5,203.9,443.5z"/>
	<path d="M391.4,256H120.6c-5.8,0-10.4-4.7-10.4-10.4s4.7-10.4,10.4-10.4h270.8c5.7,0,10.4,4.7,10.4,10.4S397.2,256,391.4,256z"/>
	<path d="M391.4,318.5H120.6c-5.8,0-10.4-4.7-10.4-10.4s4.7-10.4,10.4-10.4h270.8c5.7,0,10.4,4.7,10.4,10.4S397.2,318.5,391.4,318.5
		z"/>
	<path d="M391.4,381H120.6c-5.8,0-10.4-4.7-10.4-10.4s4.7-10.4,10.4-10.4h270.8c5.7,0,10.4,4.7,10.4,10.4S397.2,381,391.4,381z"/>
</g>
</svg>
