<?xml version="1.0" encoding="utf-8"?>
<!-- Generator: Adobe Illustrator 24.3.0, SVG Export Plug-In . SVG Version: 6.00 Build 0)  -->
<svg version="1.1" id="Capa_1" xmlns="http://www.w3.org/2000/svg" xmlns:xlink="http://www.w3.org/1999/xlink" x="0px" y="0px"
	 viewBox="0 0 512 512" style="enable-background:new 0 0 512 512;" xml:space="preserve">
<g>
	<g>
		<g>
			<path d="M115.5,189.2c-36.9,0-66.7,29.9-66.7,66.7s29.9,66.7,66.7,66.7s66.7-29.9,66.7-66.7C182.1,219.2,152.3,189.3,115.5,189.2
				z M115.5,299.3c-23.9,0-43.3-19.3-43.3-43.3c0-23.9,19.3-43.3,43.3-43.3c23.9,0,43.3,19.3,43.3,43.3
				C158.7,279.8,139.4,299.1,115.5,299.3z"/>
		</g>
	</g>
	<g>
		<g>
			<path d="M451.5,207.9H213.3c-6.4,0-11.7,5.3-11.7,11.7c0,6.4,5.3,11.7,11.7,11.7h238.2c6.4,0,11.7-5.3,11.7-11.7
				C463.2,213.2,457.9,207.9,451.5,207.9z"/>
		</g>
	</g>
	<g>
		<g>
			<path d="M341.6,280.5H213.3c-6.4,0-11.7,5.3-11.7,11.7s5.2,11.7,11.7,11.7h128.3c6.4,0,11.7-5.3,11.7-11.7S348,280.5,341.6,280.5
				z"/>
		</g>
	</g>
	<g>
		<g>
			<path d="M115.5,6C78.6,6,48.8,35.9,48.8,72.7s29.9,66.7,66.7,66.7s66.7-29.9,66.7-66.7C182.1,35.9,152.3,6,115.5,6z M115.5,115.9
				c-23.9,0-43.3-19.3-43.3-43.3s19.3-43.3,43.3-43.3c23.9,0,43.3,19.3,43.3,43.3C158.7,96.6,139.4,115.9,115.5,115.9z"/>
		</g>
	</g>
	<g>
		<g>
			<path d="M451.5,24.1H213.3c-6.4,0-11.7,5.3-11.7,11.7s5.3,11.7,11.7,11.7h238.2c6.4,0,11.7-5.3,11.7-11.7S457.9,24.1,451.5,24.1z
				"/>
		</g>
	</g>
	<g>
		<g>
			<path d="M341.6,97.9H213.3c-6.4,0-11.7,5.3-11.7,11.7s5.2,11.7,11.7,11.7h128.3c6.4,0,11.7-5.3,11.7-11.7S348,97.9,341.6,97.9z"
				/>
		</g>
	</g>
	<g>
		<g>
			<path d="M115.5,372.5c-36.9,0-66.7,29.9-66.7,66.7S78.6,506,115.5,506s66.7-29.9,66.7-66.7C182.1,402.4,152.3,372.5,115.5,372.5z
				 M115.5,482.5c-23.9,0-43.3-19.3-43.3-43.3c0-23.9,19.3-43.3,43.3-43.3c23.9,0,43.3,19.3,43.3,43.3
				C158.7,463.2,139.4,482.5,115.5,482.5z"/>
		</g>
	</g>
	<g>
		<g>
			<path d="M451.5,390.6H213.3c-6.4,0-11.7,5.3-11.7,11.7c0,6.4,5.3,11.7,11.7,11.7h238.2c6.4,0,11.7-5.3,11.7-11.7
				C463.2,395.8,457.9,390.6,451.5,390.6z"/>
		</g>
	</g>
	<g>
		<g>
			<path d="M341.6,464.3H213.3c-6.4,0-11.7,5.3-11.7,11.7s5.3,11.7,11.7,11.7h128.3c6.4,0,11.7-5.3,11.7-11.7S348,464.3,341.6,464.3
				z"/>
		</g>
	</g>
</g>
</svg>
